TITLE ""
FILE "TOEIC LR Kinnojyukugo_06.mp3" MP3
  TRACK 01 AUDIO
    TITLE "TOEIC LR Kinnojyukugo_06_001"
    INDEX 01 00:00:00
  TRACK 02 AUDIO
    TITLE "TOEIC LR Kinnojyukugo_06_002"
    INDEX 01 00:00:12
  TRACK 03 AUDIO
    TITLE "TOEIC LR Kinnojyukugo_06_003"
    INDEX 01 00:01:25
  TRACK 04 AUDIO
    TITLE "TOEIC LR Kinnojyukugo_06_004"
    INDEX 01 00:01:61
  TRACK 05 AUDIO
    TITLE "TOEIC LR Kinnojyukugo_06_005"
    INDEX 01 00:02:56
  TRACK 06 AUDIO
    TITLE "TOEIC LR Kinnojyukugo_06_006"
    INDEX 01 00:03:20
  TRACK 07 AUDIO
    TITLE "TOEIC LR Kinnojyukugo_06_007"
    INDEX 01 00:05:51
  TRACK 08 AUDIO
    TITLE "TOEIC LR Kinnojyukugo_06_008"
    INDEX 01 00:06:11
  TRACK 09 AUDIO
    TITLE "TOEIC LR Kinnojyukugo_06_009"
    INDEX 01 00:08:18
  TRACK 10 AUDIO
    TITLE "TOEIC LR Kinnojyukugo_06_010"
    INDEX 01 00:08:41
  TRACK 11 AUDIO
    TITLE "TOEIC LR Kinnojyukugo_06_011"
    INDEX 01 00:10:46
  TRACK 12 AUDIO
    TITLE "TOEIC LR Kinnojyukugo_06_012"
    INDEX 01 00:11:47
  TRACK 13 AUDIO
    TITLE "TOEIC LR Kinnojyukugo_06_013"
    INDEX 01 00:12:61
  TRACK 14 AUDIO
    TITLE "TOEIC LR Kinnojyukugo_06_014"
    INDEX 01 00:13:21
  TRACK 15 AUDIO
    TITLE "TOEIC LR Kinnojyukugo_06_015"
    INDEX 01 00:15:73
  TRACK 16 AUDIO
    TITLE "TOEIC LR Kinnojyukugo_06_016"
    INDEX 01 00:16:33
  TRACK 17 AUDIO
    TITLE "TOEIC LR Kinnojyukugo_06_017"
    INDEX 01 00:19:15
  TRACK 18 AUDIO
    TITLE "TOEIC LR Kinnojyukugo_06_018"
    INDEX 01 00:19:55
  TRACK 19 AUDIO
    TITLE "TOEIC LR Kinnojyukugo_06_019"
    INDEX 01 00:22:33
  TRACK 20 AUDIO
    TITLE "TOEIC LR Kinnojyukugo_06_020"
    INDEX 01 00:22:57
  TRACK 21 AUDIO
    TITLE "TOEIC LR Kinnojyukugo_06_021"
    INDEX 01 00:25:36
  TRACK 22 AUDIO
    TITLE "TOEIC LR Kinnojyukugo_06_022"
    INDEX 01 00:26:39
  TRACK 23 AUDIO
    TITLE "TOEIC LR Kinnojyukugo_06_023"
    INDEX 01 00:27:40
  TRACK 24 AUDIO
    TITLE "TOEIC LR Kinnojyukugo_06_024"
    INDEX 01 00:28:03
  TRACK 25 AUDIO
    TITLE "TOEIC LR Kinnojyukugo_06_025"
    INDEX 01 00:28:63
  TRACK 26 AUDIO
    TITLE "TOEIC LR Kinnojyukugo_06_026"
    INDEX 01 00:29:28
  TRACK 27 AUDIO
    TITLE "TOEIC LR Kinnojyukugo_06_027"
    INDEX 01 00:31:50
  TRACK 28 AUDIO
    TITLE "TOEIC LR Kinnojyukugo_06_028"
    INDEX 01 00:32:16
  TRACK 29 AUDIO
    TITLE "TOEIC LR Kinnojyukugo_06_029"
    INDEX 01 00:34:43
  TRACK 30 AUDIO
    TITLE "TOEIC LR Kinnojyukugo_06_030"
    INDEX 01 00:34:66
  TRACK 31 AUDIO
    TITLE "TOEIC LR Kinnojyukugo_06_031"
    INDEX 01 00:37:15
  TRACK 32 AUDIO
    TITLE "TOEIC LR Kinnojyukugo_06_032"
    INDEX 01 00:38:17
  TRACK 33 AUDIO
    TITLE "TOEIC LR Kinnojyukugo_06_033"
    INDEX 01 00:39:38
  TRACK 34 AUDIO
    TITLE "TOEIC LR Kinnojyukugo_06_034"
    INDEX 01 00:40:00
  TRACK 35 AUDIO
    TITLE "TOEIC LR Kinnojyukugo_06_035"
    INDEX 01 00:40:71
  TRACK 36 AUDIO
    TITLE "TOEIC LR Kinnojyukugo_06_036"
    INDEX 01 00:41:33
  TRACK 37 AUDIO
    TITLE "TOEIC LR Kinnojyukugo_06_037"
    INDEX 01 00:43:51
  TRACK 38 AUDIO
    TITLE "TOEIC LR Kinnojyukugo_06_038"
    INDEX 01 00:44:15
  TRACK 39 AUDIO
    TITLE "TOEIC LR Kinnojyukugo_06_039"
    INDEX 01 00:47:12
  TRACK 40 AUDIO
    TITLE "TOEIC LR Kinnojyukugo_06_040"
    INDEX 01 00:47:35
  TRACK 41 AUDIO
    TITLE "TOEIC LR Kinnojyukugo_06_041"
    INDEX 01 00:50:32
  TRACK 42 AUDIO
    TITLE "TOEIC LR Kinnojyukugo_06_042"
    INDEX 01 00:51:29
  TRACK 43 AUDIO
    TITLE "TOEIC LR Kinnojyukugo_06_043"
    INDEX 01 00:52:33
  TRACK 44 AUDIO
    TITLE "TOEIC LR Kinnojyukugo_06_044"
    INDEX 01 00:52:72
  TRACK 45 AUDIO
    TITLE "TOEIC LR Kinnojyukugo_06_045"
    INDEX 01 00:54:14
  TRACK 46 AUDIO
    TITLE "TOEIC LR Kinnojyukugo_06_046"
    INDEX 01 00:54:53
  TRACK 47 AUDIO
    TITLE "TOEIC LR Kinnojyukugo_06_047"
    INDEX 01 00:56:70
  TRACK 48 AUDIO
    TITLE "TOEIC LR Kinnojyukugo_06_048"
    INDEX 01 00:57:36
  TRACK 49 AUDIO
    TITLE "TOEIC LR Kinnojyukugo_06_049"
    INDEX 01 00:59:23
  TRACK 50 AUDIO
    TITLE "TOEIC LR Kinnojyukugo_06_050"
    INDEX 01 00:59:48
  TRACK 51 AUDIO
    TITLE "TOEIC LR Kinnojyukugo_06_051"
    INDEX 01 01:01:39
  TRACK 52 AUDIO
    TITLE "TOEIC LR Kinnojyukugo_06_052"
    INDEX 01 01:02:35
  TRACK 53 AUDIO
    TITLE "TOEIC LR Kinnojyukugo_06_053"
    INDEX 01 01:03:32
  TRACK 54 AUDIO
    TITLE "TOEIC LR Kinnojyukugo_06_054"
    INDEX 01 01:03:66
  TRACK 55 AUDIO
    TITLE "TOEIC LR Kinnojyukugo_06_055"
    INDEX 01 01:04:67
  TRACK 56 AUDIO
    TITLE "TOEIC LR Kinnojyukugo_06_056"
    INDEX 01 01:05:27
  TRACK 57 AUDIO
    TITLE "TOEIC LR Kinnojyukugo_06_057"
    INDEX 01 01:07:38
  TRACK 58 AUDIO
    TITLE "TOEIC LR Kinnojyukugo_06_058"
    INDEX 01 01:08:00
  TRACK 59 AUDIO
    TITLE "TOEIC LR Kinnojyukugo_06_059"
    INDEX 01 01:10:13
  TRACK 60 AUDIO
    TITLE "TOEIC LR Kinnojyukugo_06_060"
    INDEX 01 01:10:38
  TRACK 61 AUDIO
    TITLE "TOEIC LR Kinnojyukugo_06_061"
    INDEX 01 01:12:51
  TRACK 62 AUDIO
    TITLE "TOEIC LR Kinnojyukugo_06_062"
    INDEX 01 01:13:50
  TRACK 63 AUDIO
    TITLE "TOEIC LR Kinnojyukugo_06_063"
    INDEX 01 01:15:06
  TRACK 64 AUDIO
    TITLE "TOEIC LR Kinnojyukugo_06_064"
    INDEX 01 01:15:47
  TRACK 65 AUDIO
    TITLE "TOEIC LR Kinnojyukugo_06_065"
    INDEX 01 01:16:72
  TRACK 66 AUDIO
    TITLE "TOEIC LR Kinnojyukugo_06_066"
    INDEX 01 01:17:34
  TRACK 67 AUDIO
    TITLE "TOEIC LR Kinnojyukugo_06_067"
    INDEX 01 01:20:23
  TRACK 68 AUDIO
    TITLE "TOEIC LR Kinnojyukugo_06_068"
    INDEX 01 01:20:74
  TRACK 69 AUDIO
    TITLE "TOEIC LR Kinnojyukugo_06_069"
    INDEX 01 01:24:25
  TRACK 70 AUDIO
    TITLE "TOEIC LR Kinnojyukugo_06_070"
    INDEX 01 01:24:50
  TRACK 71 AUDIO
    TITLE "TOEIC LR Kinnojyukugo_06_071"
    INDEX 01 01:28:01
  TRACK 72 AUDIO
    TITLE "TOEIC LR Kinnojyukugo_06_072"
    INDEX 01 01:29:00
  TRACK 73 AUDIO
    TITLE "TOEIC LR Kinnojyukugo_06_073"
    INDEX 01 01:30:06
  TRACK 74 AUDIO
    TITLE "TOEIC LR Kinnojyukugo_06_074"
    INDEX 01 01:30:53
  TRACK 75 AUDIO
    TITLE "TOEIC LR Kinnojyukugo_06_075"
    INDEX 01 01:32:07
  TRACK 76 AUDIO
    TITLE "TOEIC LR Kinnojyukugo_06_076"
    INDEX 01 01:32:46
  TRACK 77 AUDIO
    TITLE "TOEIC LR Kinnojyukugo_06_077"
    INDEX 01 01:35:30
  TRACK 78 AUDIO
    TITLE "TOEIC LR Kinnojyukugo_06_078"
    INDEX 01 01:35:68
  TRACK 79 AUDIO
    TITLE "TOEIC LR Kinnojyukugo_06_079"
    INDEX 01 01:37:61
  TRACK 80 AUDIO
    TITLE "TOEIC LR Kinnojyukugo_06_080"
    INDEX 01 01:38:17
  TRACK 81 AUDIO
    TITLE "TOEIC LR Kinnojyukugo_06_081"
    INDEX 01 01:40:10
  TRACK 82 AUDIO
    TITLE "TOEIC LR Kinnojyukugo_06_082"
    INDEX 01 01:41:17
  TRACK 83 AUDIO
    TITLE "TOEIC LR Kinnojyukugo_06_083"
    INDEX 01 01:42:25
  TRACK 84 AUDIO
    TITLE "TOEIC LR Kinnojyukugo_06_084"
    INDEX 01 01:42:62
  TRACK 85 AUDIO
    TITLE "TOEIC LR Kinnojyukugo_06_085"
    INDEX 01 01:43:73
  TRACK 86 AUDIO
    TITLE "TOEIC LR Kinnojyukugo_06_086"
    INDEX 01 01:44:39
  TRACK 87 AUDIO
    TITLE "TOEIC LR Kinnojyukugo_06_087"
    INDEX 01 01:47:47
  TRACK 88 AUDIO
    TITLE "TOEIC LR Kinnojyukugo_06_088"
    INDEX 01 01:48:06
  TRACK 89 AUDIO
    TITLE "TOEIC LR Kinnojyukugo_06_089"
    INDEX 01 01:50:54
  TRACK 90 AUDIO
    TITLE "TOEIC LR Kinnojyukugo_06_090"
    INDEX 01 01:50:73
  TRACK 91 AUDIO
    TITLE "TOEIC LR Kinnojyukugo_06_091"
    INDEX 01 01:53:46
  TRACK 92 AUDIO
    TITLE "TOEIC LR Kinnojyukugo_06_092"
    INDEX 01 01:54:45
  TRACK 93 AUDIO
    TITLE "TOEIC LR Kinnojyukugo_06_093"
    INDEX 01 01:56:05
  TRACK 94 AUDIO
    TITLE "TOEIC LR Kinnojyukugo_06_094"
    INDEX 01 01:56:42
  TRACK 95 AUDIO
    TITLE "TOEIC LR Kinnojyukugo_06_095"
    INDEX 01 01:57:63
  TRACK 96 AUDIO
    TITLE "TOEIC LR Kinnojyukugo_06_096"
    INDEX 01 01:58:28
  TRACK 97 AUDIO
    TITLE "TOEIC LR Kinnojyukugo_06_097"
    INDEX 01 02:00:62
  TRACK 98 AUDIO
    TITLE "TOEIC LR Kinnojyukugo_06_098"
    INDEX 01 02:01:24
  TRACK 99 AUDIO
    TITLE "TOEIC LR Kinnojyukugo_06_099"
    INDEX 01 02:03:54
  TRACK 100 AUDIO
    TITLE "TOEIC LR Kinnojyukugo_06_100"
    INDEX 01 02:04:03
  TRACK 101 AUDIO
    TITLE "TOEIC LR Kinnojyukugo_06_101"
    INDEX 01 02:06:31
  TRACK 102 AUDIO
    TITLE "TOEIC LR Kinnojyukugo_06_102"
    INDEX 01 02:07:30
  TRACK 103 AUDIO
    TITLE "TOEIC LR Kinnojyukugo_06_103"
    INDEX 01 02:08:34
  TRACK 104 AUDIO
    TITLE "TOEIC LR Kinnojyukugo_06_104"
    INDEX 01 02:08:71
  TRACK 105 AUDIO
    TITLE "TOEIC LR Kinnojyukugo_06_105"
    INDEX 01 02:09:59
  TRACK 106 AUDIO
    TITLE "TOEIC LR Kinnojyukugo_06_106"
    INDEX 01 02:10:21
  TRACK 107 AUDIO
    TITLE "TOEIC LR Kinnojyukugo_06_107"
    INDEX 01 02:12:69
  TRACK 108 AUDIO
    TITLE "TOEIC LR Kinnojyukugo_06_108"
    INDEX 01 02:13:35
  TRACK 109 AUDIO
    TITLE "TOEIC LR Kinnojyukugo_06_109"
    INDEX 01 02:16:08
  TRACK 110 AUDIO
    TITLE "TOEIC LR Kinnojyukugo_06_110"
    INDEX 01 02:16:35
  TRACK 111 AUDIO
    TITLE "TOEIC LR Kinnojyukugo_06_111"
    INDEX 01 02:19:08
